<svg width="128" height="128" viewBox="0 0 128 128" fill="none" xmlns="http://www.w3.org/2000/svg">
<rect width="128" height="128" rx="8" fill="#09090B"/>
<path d="M88 45.3333C88 49.7516 77.2548 53.3333 64 53.3333C50.7452 53.3333 40 49.7516 40 45.3333M88 45.3333C88 40.915 77.2548 37.3333 64 37.3333C50.7452 37.3333 40 40.915 40 45.3333M88 45.3333V82.6666C88 84.7884 85.4714 86.8232 80.9706 88.3235C76.4697 89.8238 70.3652 90.6666 64 90.6666C57.6348 90.6666 51.5303 89.8238 47.0294 88.3235C42.5286 86.8232 40 84.7884 40 82.6666V45.3333M40 64C40 66.1217 42.5286 68.1565 47.0294 69.6568C51.5303 71.1571 57.6348 72 64 72C70.3652 72 76.4697 71.1571 80.9706 69.6568C85.4714 68.1565 88 66.1217 88 64" stroke="#A3E635" stroke-width="5" stroke-linecap="round" stroke-linejoin="round"/>
</svg>
